<svg xmlns="http://www.w3.org/2000/svg" xmlns:xlink="http://www.w3.org/1999/xlink" width="1708" height="80" viewBox="0 0 1708 80"><defs><style>.a{fill:#00bef0;}.b{fill:none;stroke:#fff;}.c,.d,.e,.h{fill:#fff;}.c{font-size:22px;}.c,.d,.e{font-family:Overpass-Regular, Overpass;}.d{font-size:14px;}.e{font-size:11px;}.f{fill:#004857;}.g{fill:#004658;}</style></defs><rect class="a" width="1708" height="80"/><g transform="translate(0 1)"><image width="137.477" height="29" transform="translate(28.408 24.987)" xlink:href="ComponentTMP_0-image.png"/><rect class="a" width="110" height="22" transform="translate(60 29)"/><line class="b" y2="31" transform="translate(65.5 23.5)"/><text class="c" transform="translate(74 47)"><tspan x="0" y="0">Dashboard</tspan></text></g><text class="d" transform="translate(1586 58)"><tspan x="0" y="0">Administration</tspan></text><text class="d" transform="translate(1506 58)"><tspan x="0" y="0">Reports</tspan></text><text class="d" transform="translate(1398 58)"><tspan x="0" y="0">Applications</tspan></text><text class="d" transform="translate(1325 58)"><tspan x="0" y="0">Orders</tspan></text><text class="d" transform="translate(1238 58)"><tspan x="0" y="0">Numbers</tspan></text><text class="d" transform="translate(1140 58)"><tspan x="0" y="0">Dashboard</tspan></text><g transform="translate(-194)"><text class="e" transform="translate(1432 28)"><tspan x="0" y="0">Account</tspan></text><text class="e" transform="translate(1503 28)"><tspan x="0" y="0">Search</tspan></text><text class="e" transform="translate(1567 28)"><tspan x="0" y="0">Support</tspan></text><text class="e" transform="translate(1637 28)"><tspan x="0" y="0">Log out</tspan></text><g transform="translate(-26)"><rect class="f" width="169" height="23" rx="11.5" transform="translate(1731 14)"/><text class="e" transform="translate(1746 30)"><tspan x="0" y="0">LEARNING LAB &amp; SUPPORT</tspan></text></g><rect class="g" width="84" height="5" transform="translate(1589 75)"/><g transform="translate(36)"><text class="e" transform="translate(1228 28)"><tspan x="0" y="0">WandEDemo (9900012)</tspan></text><path class="h" d="M3.24,12.906l-.49.49L7.955,18.6,13.161,13.4l-.49-.49L7.955,17.622Z" transform="translate(1353.25 8.398)"/></g></g></svg>